<mxfile host="app.diagrams.net" modified="2022-11-29T23:15:15.479Z" agent="5.0 (Windows NT 10.0; Win64; x64) AppleWebKit/537.36 (KHTML, like Gecko) Chrome/103.0.5060.114 Safari/537.36 OPR/89.0.4447.64" version="20.6.0" etag="mSOTVgf7Ng9ttY8kw5Dk" type="github">
  <diagram id="gR8BGMjpGpmtXavdDHzV" name="Página-1">
    <mxGraphModel dx="1625" dy="935" grid="1" gridSize="10" guides="1" tooltips="1" connect="1" arrows="1" fold="1" page="1" pageScale="1" pageWidth="827" pageHeight="1169" math="0" shadow="0">
      <root>
        <mxCell id="0" />
        <mxCell id="1" parent="0" />
        <mxCell id="SVfwjviFg7OJOxVClkri-1" value="EXAME" style="rounded=0;whiteSpace=wrap;html=1;fontColor=#000000;fontStyle=1" vertex="1" parent="1">
          <mxGeometry x="375" y="380" width="120" height="60" as="geometry" />
        </mxCell>
        <mxCell id="SVfwjviFg7OJOxVClkri-2" value="PACIENTE" style="rounded=0;whiteSpace=wrap;html=1;fontColor=#000000;fontStyle=1" vertex="1" parent="1">
          <mxGeometry x="650" y="80" width="120" height="60" as="geometry" />
        </mxCell>
        <mxCell id="SVfwjviFg7OJOxVClkri-16" style="edgeStyle=orthogonalEdgeStyle;rounded=0;orthogonalLoop=1;jettySize=auto;html=1;entryX=0;entryY=0.5;entryDx=0;entryDy=0;strokeColor=#000;" edge="1" parent="1" source="SVfwjviFg7OJOxVClkri-3" target="SVfwjviFg7OJOxVClkri-8">
          <mxGeometry relative="1" as="geometry" />
        </mxCell>
        <mxCell id="SVfwjviFg7OJOxVClkri-20" style="edgeStyle=orthogonalEdgeStyle;rounded=0;orthogonalLoop=1;jettySize=auto;html=1;entryX=0.5;entryY=0;entryDx=0;entryDy=0;strokeColor=#000;" edge="1" parent="1" source="SVfwjviFg7OJOxVClkri-3" target="SVfwjviFg7OJOxVClkri-9">
          <mxGeometry relative="1" as="geometry" />
        </mxCell>
        <mxCell id="SVfwjviFg7OJOxVClkri-22" value="1" style="edgeLabel;html=1;align=center;verticalAlign=middle;resizable=0;points=[];" vertex="1" connectable="0" parent="SVfwjviFg7OJOxVClkri-20">
          <mxGeometry x="-0.5922" relative="1" as="geometry">
            <mxPoint x="5" as="offset" />
          </mxGeometry>
        </mxCell>
        <mxCell id="SVfwjviFg7OJOxVClkri-3" value="CONSULTA" style="rounded=0;whiteSpace=wrap;html=1;fontStyle=1;fontColor=#000000;" vertex="1" parent="1">
          <mxGeometry x="375" y="80" width="120" height="60" as="geometry" />
        </mxCell>
        <mxCell id="SVfwjviFg7OJOxVClkri-12" style="edgeStyle=orthogonalEdgeStyle;rounded=0;orthogonalLoop=1;jettySize=auto;html=1;entryX=0;entryY=0.5;entryDx=0;entryDy=0;fontColor=#000000;strokeColor=#000000;" edge="1" parent="1" source="SVfwjviFg7OJOxVClkri-4" target="SVfwjviFg7OJOxVClkri-7">
          <mxGeometry relative="1" as="geometry" />
        </mxCell>
        <mxCell id="SVfwjviFg7OJOxVClkri-4" value="MÉDICO" style="rounded=0;whiteSpace=wrap;html=1;fontColor=#000000;fontStyle=1" vertex="1" parent="1">
          <mxGeometry x="65" y="80" width="120" height="60" as="geometry" />
        </mxCell>
        <mxCell id="SVfwjviFg7OJOxVClkri-14" style="edgeStyle=orthogonalEdgeStyle;rounded=0;orthogonalLoop=1;jettySize=auto;html=1;strokeColor=#000;" edge="1" parent="1" source="SVfwjviFg7OJOxVClkri-7" target="SVfwjviFg7OJOxVClkri-3">
          <mxGeometry relative="1" as="geometry" />
        </mxCell>
        <mxCell id="SVfwjviFg7OJOxVClkri-15" value="&lt;span style=&quot;color: rgb(189, 193, 198); font-family: arial, sans-serif; font-size: 14px; text-align: left; background-color: rgb(32, 33, 36);&quot;&gt;☆&lt;/span&gt;" style="edgeLabel;html=1;align=center;verticalAlign=middle;resizable=0;points=[];" vertex="1" connectable="0" parent="SVfwjviFg7OJOxVClkri-14">
          <mxGeometry x="-0.3659" y="1" relative="1" as="geometry">
            <mxPoint x="26" y="-14" as="offset" />
          </mxGeometry>
        </mxCell>
        <mxCell id="SVfwjviFg7OJOxVClkri-7" value="Realiza" style="rhombus;whiteSpace=wrap;html=1;fillColor=#FFFFFF;strokeColor=#000000;strokeWidth=1.4;fontSize=7;fontColor=#000000;" vertex="1" parent="1">
          <mxGeometry x="259" y="90" width="40" height="40" as="geometry" />
        </mxCell>
        <mxCell id="SVfwjviFg7OJOxVClkri-17" style="edgeStyle=orthogonalEdgeStyle;rounded=0;orthogonalLoop=1;jettySize=auto;html=1;strokeColor=#000;" edge="1" parent="1" source="SVfwjviFg7OJOxVClkri-8" target="SVfwjviFg7OJOxVClkri-2">
          <mxGeometry relative="1" as="geometry" />
        </mxCell>
        <mxCell id="SVfwjviFg7OJOxVClkri-18" value="1" style="edgeLabel;html=1;align=center;verticalAlign=middle;resizable=0;points=[];" vertex="1" connectable="0" parent="SVfwjviFg7OJOxVClkri-17">
          <mxGeometry x="0.2543" relative="1" as="geometry">
            <mxPoint x="12" y="-15" as="offset" />
          </mxGeometry>
        </mxCell>
        <mxCell id="SVfwjviFg7OJOxVClkri-8" value="" style="rhombus;whiteSpace=wrap;html=1;fillColor=#FFFFFF;strokeColor=#000000;" vertex="1" parent="1">
          <mxGeometry x="550" y="90" width="40" height="40" as="geometry" />
        </mxCell>
        <mxCell id="SVfwjviFg7OJOxVClkri-21" style="edgeStyle=orthogonalEdgeStyle;rounded=0;orthogonalLoop=1;jettySize=auto;html=1;strokeColor=#000;" edge="1" parent="1" source="SVfwjviFg7OJOxVClkri-9" target="SVfwjviFg7OJOxVClkri-1">
          <mxGeometry relative="1" as="geometry" />
        </mxCell>
        <mxCell id="SVfwjviFg7OJOxVClkri-9" value="" style="rhombus;whiteSpace=wrap;html=1;fillColor=#E6E6E6;strokeColor=#000000;strokeWidth=1.4;" vertex="1" parent="1">
          <mxGeometry x="415" y="240" width="40" height="40" as="geometry" />
        </mxCell>
        <mxCell id="SVfwjviFg7OJOxVClkri-13" value="1" style="text;html=1;align=center;verticalAlign=middle;resizable=0;points=[];autosize=1;strokeColor=none;fillColor=none;" vertex="1" parent="1">
          <mxGeometry x="185" y="80" width="30" height="30" as="geometry" />
        </mxCell>
        <mxCell id="SVfwjviFg7OJOxVClkri-19" value="&lt;span style=&quot;color: rgb(189, 193, 198); font-family: arial, sans-serif; font-size: 14px; text-align: left; background-color: rgb(32, 33, 36);&quot;&gt;☆&lt;/span&gt;" style="edgeLabel;html=1;align=center;verticalAlign=middle;resizable=0;points=[];" vertex="1" connectable="0" parent="1">
          <mxGeometry x="359.80952380952385" y="110" as="geometry">
            <mxPoint x="148" y="-13" as="offset" />
          </mxGeometry>
        </mxCell>
        <mxCell id="SVfwjviFg7OJOxVClkri-24" value="&lt;span style=&quot;color: rgb(189, 193, 198); font-family: arial, sans-serif; font-size: 14px; text-align: left; background-color: rgb(32, 33, 36);&quot;&gt;☆&lt;/span&gt;" style="edgeLabel;html=1;align=center;verticalAlign=middle;resizable=0;points=[];" vertex="1" connectable="0" parent="1">
          <mxGeometry x="359.80952380952385" y="110" as="geometry">
            <mxPoint x="87" y="243" as="offset" />
          </mxGeometry>
        </mxCell>
        <mxCell id="SVfwjviFg7OJOxVClkri-44" style="edgeStyle=orthogonalEdgeStyle;rounded=0;orthogonalLoop=1;jettySize=auto;html=1;entryX=0.113;entryY=0;entryDx=0;entryDy=0;entryPerimeter=0;fontColor=#000000;strokeColor=#050505;" edge="1" parent="1" source="SVfwjviFg7OJOxVClkri-36" target="SVfwjviFg7OJOxVClkri-4">
          <mxGeometry relative="1" as="geometry" />
        </mxCell>
        <mxCell id="SVfwjviFg7OJOxVClkri-36" value="" style="ellipse;whiteSpace=wrap;html=1;aspect=fixed;strokeColor=#000000;fillColor=#0D0D0D;" vertex="1" parent="1">
          <mxGeometry x="70" y="30" width="17" height="17" as="geometry" />
        </mxCell>
        <mxCell id="SVfwjviFg7OJOxVClkri-46" style="edgeStyle=orthogonalEdgeStyle;rounded=0;orthogonalLoop=1;jettySize=auto;html=1;entryX=0.358;entryY=0;entryDx=0;entryDy=0;entryPerimeter=0;strokeColor=#000000;" edge="1" parent="1" source="SVfwjviFg7OJOxVClkri-37" target="SVfwjviFg7OJOxVClkri-4">
          <mxGeometry relative="1" as="geometry" />
        </mxCell>
        <mxCell id="SVfwjviFg7OJOxVClkri-37" value="" style="ellipse;whiteSpace=wrap;html=1;aspect=fixed;fillColor=#f5f5f5;fontColor=#333333;strokeColor=#030303;" vertex="1" parent="1">
          <mxGeometry x="100" y="30" width="17" height="17" as="geometry" />
        </mxCell>
        <mxCell id="SVfwjviFg7OJOxVClkri-47" style="edgeStyle=orthogonalEdgeStyle;rounded=0;orthogonalLoop=1;jettySize=auto;html=1;entryX=0.625;entryY=0;entryDx=0;entryDy=0;entryPerimeter=0;strokeColor=#000;" edge="1" parent="1" source="SVfwjviFg7OJOxVClkri-38" target="SVfwjviFg7OJOxVClkri-4">
          <mxGeometry relative="1" as="geometry" />
        </mxCell>
        <mxCell id="SVfwjviFg7OJOxVClkri-38" value="" style="ellipse;whiteSpace=wrap;html=1;aspect=fixed;fillColor=#f5f5f5;fontColor=#333333;strokeColor=#050505;" vertex="1" parent="1">
          <mxGeometry x="131.5" y="30" width="17" height="17" as="geometry" />
        </mxCell>
        <mxCell id="SVfwjviFg7OJOxVClkri-49" style="edgeStyle=orthogonalEdgeStyle;rounded=0;orthogonalLoop=1;jettySize=auto;html=1;entryX=0.862;entryY=0;entryDx=0;entryDy=0;entryPerimeter=0;strokeColor=#000;" edge="1" parent="1" source="SVfwjviFg7OJOxVClkri-39" target="SVfwjviFg7OJOxVClkri-4">
          <mxGeometry relative="1" as="geometry" />
        </mxCell>
        <mxCell id="SVfwjviFg7OJOxVClkri-39" value="" style="ellipse;whiteSpace=wrap;html=1;aspect=fixed;fillColor=#f5f5f5;fontColor=#333333;strokeColor=#0D0D0D;" vertex="1" parent="1">
          <mxGeometry x="160" y="30" width="17" height="17" as="geometry" />
        </mxCell>
        <mxCell id="SVfwjviFg7OJOxVClkri-50" value="CRM" style="text;html=1;align=center;verticalAlign=middle;resizable=0;points=[];autosize=1;strokeColor=none;fillColor=none;fontSize=5;fontColor=#000000;labelBorderColor=none;labelBackgroundColor=none;fontStyle=1" vertex="1" parent="1">
          <mxGeometry x="63.5" y="10" width="30" height="20" as="geometry" />
        </mxCell>
        <mxCell id="SVfwjviFg7OJOxVClkri-51" value="ENDEREÇO" style="text;html=1;align=center;verticalAlign=middle;resizable=0;points=[];autosize=1;strokeColor=none;fillColor=none;fontSize=5;fontColor=#000;fontStyle=1" vertex="1" parent="1">
          <mxGeometry x="115" y="10" width="50" height="20" as="geometry" />
        </mxCell>
        <mxCell id="SVfwjviFg7OJOxVClkri-52" value="TELEFONE" style="text;html=1;align=center;verticalAlign=middle;resizable=0;points=[];autosize=1;strokeColor=none;fillColor=none;fontSize=5;fontColor=#000;fontStyle=1" vertex="1" parent="1">
          <mxGeometry x="148.5" y="10" width="50" height="20" as="geometry" />
        </mxCell>
        <mxCell id="SVfwjviFg7OJOxVClkri-53" value="NOME" style="text;html=1;align=center;verticalAlign=middle;resizable=0;points=[];autosize=1;strokeColor=none;fillColor=none;fontSize=5;fontColor=#000000;fontStyle=1" vertex="1" parent="1">
          <mxGeometry x="88.5" y="10" width="40" height="20" as="geometry" />
        </mxCell>
        <mxCell id="SVfwjviFg7OJOxVClkri-71" style="edgeStyle=orthogonalEdgeStyle;rounded=0;orthogonalLoop=1;jettySize=auto;html=1;entryX=0.233;entryY=0.017;entryDx=0;entryDy=0;entryPerimeter=0;strokeColor=#050505;fontSize=6;fontColor=#000000;" edge="1" parent="1" source="SVfwjviFg7OJOxVClkri-60" target="SVfwjviFg7OJOxVClkri-3">
          <mxGeometry relative="1" as="geometry" />
        </mxCell>
        <mxCell id="SVfwjviFg7OJOxVClkri-60" value="" style="ellipse;whiteSpace=wrap;html=1;aspect=fixed;strokeColor=#000000;fillColor=#0D0D0D;" vertex="1" parent="1">
          <mxGeometry x="395" y="30" width="17" height="17" as="geometry" />
        </mxCell>
        <mxCell id="SVfwjviFg7OJOxVClkri-75" style="edgeStyle=orthogonalEdgeStyle;rounded=0;orthogonalLoop=1;jettySize=auto;html=1;entryX=0.487;entryY=0;entryDx=0;entryDy=0;entryPerimeter=0;strokeColor=#000;fontSize=6;fontColor=#000000;" edge="1" parent="1" source="SVfwjviFg7OJOxVClkri-61" target="SVfwjviFg7OJOxVClkri-3">
          <mxGeometry relative="1" as="geometry" />
        </mxCell>
        <mxCell id="SVfwjviFg7OJOxVClkri-61" value="" style="ellipse;whiteSpace=wrap;html=1;aspect=fixed;fillColor=#f5f5f5;fontColor=#000000;strokeColor=#000000;" vertex="1" parent="1">
          <mxGeometry x="425" y="30" width="17" height="17" as="geometry" />
        </mxCell>
        <mxCell id="SVfwjviFg7OJOxVClkri-76" style="edgeStyle=orthogonalEdgeStyle;rounded=0;orthogonalLoop=1;jettySize=auto;html=1;entryX=0.75;entryY=0;entryDx=0;entryDy=0;strokeColor=#000;fontSize=6;fontColor=#000000;" edge="1" parent="1" source="SVfwjviFg7OJOxVClkri-62" target="SVfwjviFg7OJOxVClkri-3">
          <mxGeometry relative="1" as="geometry" />
        </mxCell>
        <mxCell id="SVfwjviFg7OJOxVClkri-62" value="" style="ellipse;whiteSpace=wrap;html=1;aspect=fixed;fillColor=#f5f5f5;fontColor=#000000;strokeColor=#000000;" vertex="1" parent="1">
          <mxGeometry x="456.5" y="30" width="17" height="17" as="geometry" />
        </mxCell>
        <mxCell id="SVfwjviFg7OJOxVClkri-81" style="edgeStyle=orthogonalEdgeStyle;rounded=0;orthogonalLoop=1;jettySize=auto;html=1;entryX=0.112;entryY=0.01;entryDx=0;entryDy=0;entryPerimeter=0;strokeColor=#050505;fontSize=6;fontColor=#0F0F0F;" edge="1" parent="1" source="SVfwjviFg7OJOxVClkri-64" target="SVfwjviFg7OJOxVClkri-2">
          <mxGeometry relative="1" as="geometry" />
        </mxCell>
        <mxCell id="SVfwjviFg7OJOxVClkri-64" value="" style="ellipse;whiteSpace=wrap;html=1;aspect=fixed;strokeColor=#000000;fillColor=#0D0D0D;" vertex="1" parent="1">
          <mxGeometry x="655" y="30" width="17" height="17" as="geometry" />
        </mxCell>
        <mxCell id="SVfwjviFg7OJOxVClkri-82" style="edgeStyle=orthogonalEdgeStyle;rounded=0;orthogonalLoop=1;jettySize=auto;html=1;entryX=0.362;entryY=0.002;entryDx=0;entryDy=0;entryPerimeter=0;strokeColor=#000;fontSize=6;fontColor=#0F0F0F;" edge="1" parent="1" source="SVfwjviFg7OJOxVClkri-65" target="SVfwjviFg7OJOxVClkri-2">
          <mxGeometry relative="1" as="geometry" />
        </mxCell>
        <mxCell id="SVfwjviFg7OJOxVClkri-65" value="" style="ellipse;whiteSpace=wrap;html=1;aspect=fixed;fillColor=#f5f5f5;fontColor=#333333;strokeColor=#0D0D0D;" vertex="1" parent="1">
          <mxGeometry x="685" y="30" width="17" height="17" as="geometry" />
        </mxCell>
        <mxCell id="SVfwjviFg7OJOxVClkri-83" style="edgeStyle=orthogonalEdgeStyle;rounded=0;orthogonalLoop=1;jettySize=auto;html=1;entryX=0.622;entryY=-0.037;entryDx=0;entryDy=0;entryPerimeter=0;strokeColor=#000;fontSize=6;fontColor=#0F0F0F;" edge="1" parent="1" source="SVfwjviFg7OJOxVClkri-66" target="SVfwjviFg7OJOxVClkri-2">
          <mxGeometry relative="1" as="geometry" />
        </mxCell>
        <mxCell id="SVfwjviFg7OJOxVClkri-66" value="" style="ellipse;whiteSpace=wrap;html=1;aspect=fixed;fillColor=#f5f5f5;fontColor=#333333;strokeColor=#0A0A0A;" vertex="1" parent="1">
          <mxGeometry x="716.5" y="30" width="17" height="17" as="geometry" />
        </mxCell>
        <mxCell id="SVfwjviFg7OJOxVClkri-84" style="edgeStyle=orthogonalEdgeStyle;rounded=0;orthogonalLoop=1;jettySize=auto;html=1;entryX=0.891;entryY=0.014;entryDx=0;entryDy=0;entryPerimeter=0;strokeColor=#000;fontSize=6;fontColor=#0F0F0F;" edge="1" parent="1" source="SVfwjviFg7OJOxVClkri-67" target="SVfwjviFg7OJOxVClkri-2">
          <mxGeometry relative="1" as="geometry" />
        </mxCell>
        <mxCell id="SVfwjviFg7OJOxVClkri-67" value="" style="ellipse;whiteSpace=wrap;html=1;aspect=fixed;fillColor=#f5f5f5;fontColor=#333333;strokeColor=#0A0A0A;" vertex="1" parent="1">
          <mxGeometry x="748" y="30" width="17" height="17" as="geometry" />
        </mxCell>
        <mxCell id="SVfwjviFg7OJOxVClkri-77" style="edgeStyle=orthogonalEdgeStyle;rounded=0;orthogonalLoop=1;jettySize=auto;html=1;entryX=0.25;entryY=1;entryDx=0;entryDy=0;strokeColor=#050505;fontSize=6;fontColor=#000000;" edge="1" parent="1" source="SVfwjviFg7OJOxVClkri-68" target="SVfwjviFg7OJOxVClkri-1">
          <mxGeometry relative="1" as="geometry" />
        </mxCell>
        <mxCell id="SVfwjviFg7OJOxVClkri-68" value="" style="ellipse;whiteSpace=wrap;html=1;aspect=fixed;strokeColor=#000000;fillColor=#0D0D0D;" vertex="1" parent="1">
          <mxGeometry x="395.75" y="490" width="17" height="17" as="geometry" />
        </mxCell>
        <mxCell id="SVfwjviFg7OJOxVClkri-78" style="edgeStyle=orthogonalEdgeStyle;rounded=0;orthogonalLoop=1;jettySize=auto;html=1;entryX=0.5;entryY=1;entryDx=0;entryDy=0;strokeColor=#000000;fontSize=6;fontColor=#000000;" edge="1" parent="1" source="SVfwjviFg7OJOxVClkri-69" target="SVfwjviFg7OJOxVClkri-1">
          <mxGeometry relative="1" as="geometry" />
        </mxCell>
        <mxCell id="SVfwjviFg7OJOxVClkri-69" value="" style="ellipse;whiteSpace=wrap;html=1;aspect=fixed;fillColor=#f5f5f5;fontColor=#333333;strokeColor=#000000;" vertex="1" parent="1">
          <mxGeometry x="425.75" y="490" width="17" height="17" as="geometry" />
        </mxCell>
        <mxCell id="SVfwjviFg7OJOxVClkri-80" style="edgeStyle=orthogonalEdgeStyle;orthogonalLoop=1;jettySize=auto;html=1;entryX=0.75;entryY=1;entryDx=0;entryDy=0;strokeColor=#050505;fontSize=6;fontColor=#000000;rounded=0;shadow=0;sketch=0;" edge="1" parent="1" source="SVfwjviFg7OJOxVClkri-70" target="SVfwjviFg7OJOxVClkri-1">
          <mxGeometry relative="1" as="geometry" />
        </mxCell>
        <mxCell id="SVfwjviFg7OJOxVClkri-70" value="" style="ellipse;whiteSpace=wrap;html=1;aspect=fixed;fillColor=#f5f5f5;fontColor=#333333;strokeColor=#000000;" vertex="1" parent="1">
          <mxGeometry x="457.25" y="490" width="17" height="17" as="geometry" />
        </mxCell>
        <mxCell id="SVfwjviFg7OJOxVClkri-85" value="CODIGO" style="text;html=1;align=center;verticalAlign=middle;resizable=0;points=[];autosize=1;fontSize=5;fontStyle=1;fontColor=#000;" vertex="1" parent="1">
          <mxGeometry x="378.5" y="507" width="40" height="20" as="geometry" />
        </mxCell>
        <mxCell id="SVfwjviFg7OJOxVClkri-86" value="RESULTADO" style="text;html=1;align=center;verticalAlign=middle;resizable=0;points=[];autosize=1;fontSize=5;fontColor=#000;fontStyle=1" vertex="1" parent="1">
          <mxGeometry x="445" y="507" width="50" height="20" as="geometry" />
        </mxCell>
        <mxCell id="SVfwjviFg7OJOxVClkri-87" value="NOME" style="text;html=1;align=center;verticalAlign=middle;resizable=0;points=[];autosize=1;fontSize=5;fontStyle=1;fontColor=#000;" vertex="1" parent="1">
          <mxGeometry x="415" y="507" width="40" height="20" as="geometry" />
        </mxCell>
        <mxCell id="SVfwjviFg7OJOxVClkri-89" value="ENDEREÇO" style="text;html=1;align=center;verticalAlign=middle;resizable=0;points=[];autosize=1;fontSize=5;fontColor=#000;fontStyle=1" vertex="1" parent="1">
          <mxGeometry x="702" y="10" width="50" height="20" as="geometry" />
        </mxCell>
        <mxCell id="SVfwjviFg7OJOxVClkri-90" value="CPF" style="text;html=1;align=center;verticalAlign=middle;resizable=0;points=[];autosize=1;fontSize=5;fontColor=#000000;fontStyle=1" vertex="1" parent="1">
          <mxGeometry x="648.5" y="10" width="30" height="20" as="geometry" />
        </mxCell>
        <mxCell id="SVfwjviFg7OJOxVClkri-91" value="NOME" style="text;html=1;align=center;verticalAlign=middle;resizable=0;points=[];autosize=1;fontSize=5;fontColor=#000;fontStyle=1" vertex="1" parent="1">
          <mxGeometry x="673.5" y="10" width="40" height="20" as="geometry" />
        </mxCell>
        <mxCell id="SVfwjviFg7OJOxVClkri-92" value="TELEFONE" style="text;html=1;align=center;verticalAlign=middle;resizable=0;points=[];autosize=1;fontSize=5;fontColor=#000;fontStyle=1" vertex="1" parent="1">
          <mxGeometry x="740" y="10" width="50" height="20" as="geometry" />
        </mxCell>
        <mxCell id="SVfwjviFg7OJOxVClkri-93" value="CODIGO" style="text;html=1;align=center;verticalAlign=middle;resizable=0;points=[];autosize=1;fontSize=5;fontColor=#000000;fontStyle=1" vertex="1" parent="1">
          <mxGeometry x="383.5" y="10" width="40" height="20" as="geometry" />
        </mxCell>
        <mxCell id="SVfwjviFg7OJOxVClkri-94" value="&amp;nbsp; &amp;nbsp;" style="text;html=1;align=center;verticalAlign=middle;resizable=0;points=[];autosize=1;fontSize=5;fontColor=#000000;" vertex="1" parent="1">
          <mxGeometry x="418.5" y="10" width="30" height="20" as="geometry" />
        </mxCell>
        <mxCell id="SVfwjviFg7OJOxVClkri-95" value="OBSERVAÇÃO" style="text;html=1;align=center;verticalAlign=middle;resizable=0;points=[];autosize=1;fontSize=5;fontColor=#000000;fontStyle=1" vertex="1" parent="1">
          <mxGeometry x="448.5" y="10" width="60" height="20" as="geometry" />
        </mxCell>
        <mxCell id="SVfwjviFg7OJOxVClkri-96" value="DATA" style="text;html=1;align=center;verticalAlign=middle;resizable=0;points=[];autosize=1;fontSize=5;fontColor=#000000;fontStyle=1" vertex="1" parent="1">
          <mxGeometry x="414.25" y="10" width="40" height="20" as="geometry" />
        </mxCell>
        <mxCell id="SVfwjviFg7OJOxVClkri-98" style="edgeStyle=orthogonalEdgeStyle;rounded=0;sketch=0;orthogonalLoop=1;jettySize=auto;html=1;entryX=0.075;entryY=1.006;entryDx=0;entryDy=0;entryPerimeter=0;shadow=0;strokeColor=#050505;fontSize=5;fontColor=#000;" edge="1" parent="1" source="SVfwjviFg7OJOxVClkri-97" target="SVfwjviFg7OJOxVClkri-4">
          <mxGeometry relative="1" as="geometry" />
        </mxCell>
        <mxCell id="SVfwjviFg7OJOxVClkri-97" value="" style="ellipse;whiteSpace=wrap;html=1;aspect=fixed;fillColor=#f5f5f5;fontColor=#333333;strokeColor=#0D0D0D;" vertex="1" parent="1">
          <mxGeometry x="65" y="170" width="17" height="17" as="geometry" />
        </mxCell>
        <mxCell id="SVfwjviFg7OJOxVClkri-99" value="ESPECIALIZAÇÃO" style="text;html=1;align=center;verticalAlign=middle;resizable=0;points=[];autosize=1;strokeColor=none;fillColor=none;fontSize=5;fontColor=#000;fontStyle=1" vertex="1" parent="1">
          <mxGeometry x="30" y="180" width="70" height="20" as="geometry" />
        </mxCell>
      </root>
    </mxGraphModel>
  </diagram>
</mxfile>
